<svg version="1.1" xmlns="http://www.w3.org/2000/svg" viewBox="0 0 890.6296233730836 358.47814529395464" width="890.6296233730836" height="358.47814529395464">
  <!-- svg-source:excalidraw -->
  
  <defs>
    <style>
      @font-face {
        font-family: "Virgil";
        src: url("https://unpkg.com/@zsviczian/excalidraw@0.11.0-obsidian-25/dist/excalidraw-assets/Virgil.woff2");
      }
      @font-face {
        font-family: "Cascadia";
        src: url("https://unpkg.com/@zsviczian/excalidraw@0.11.0-obsidian-25/dist/excalidraw-assets/Cascadia.woff2");
      }
    </style>
  </defs>
  <rect x="0" y="0" width="890.6296233730836" height="358.47814529395464" fill="#ffffff"/><g stroke-linecap="round" transform="translate(10 14.128429482739904) rotate(0 48 18.755198884401267)"><path d="M-1.69 1.19 C32.25 -1.09, 64.58 0.41, 94.6 -1.2 M0.14 -0.28 C25.12 0.49, 49.14 0.44, 96.49 0.87 M94.62 1.04 C94.41 13.84, 96.46 30.13, 96.81 37.49 M95.65 0.2 C96.02 10.4, 95.37 22, 96.75 37.05 M97.91 39.21 C62.14 36.74, 30.51 36.33, 1.63 38.52 M95.6 36.6 C61.22 37.87, 25.24 37.13, -0.88 38.42 M-0.07 37.46 C1.92 22.46, 0.83 12.32, 1.33 -1.78 M0.82 37.94 C-0.14 23.53, 0.53 8.61, 0.6 -0.42" stroke="#000000" stroke-width="1" fill="none"/></g><g transform="translate(34.397369269656906 20.00052982240061) rotate(0 22 11.5)"><text x="0" y="19" font-family="Helvetica, Segoe UI Emoji" font-size="20px" fill="#000000" text-anchor="start" style="white-space: pre;" direction="ltr">Main</text></g><g stroke-linecap="round"><g transform="translate(55.51376652179687 55.87815444922805) rotate(0 0 146.29999542236328)"><path d="M0.56 0.66 C0.67 49.47, 0.8 244.77, 0.76 293.39" stroke="#000000" stroke-width="1.5" fill="none" stroke-dasharray="8 9"/></g></g><g stroke-linecap="round" transform="translate(47.03564990053718 78.81154554183811) rotate(0 9.93403840131549 106.67326202351902)"><path d="M-0.37 0.07 L18.1 0.68 L19.99 215.15 L0.15 214.73" stroke="none" stroke-width="0" fill="#ffffffff"/><path d="M0.51 -0.66 C4.51 1.45, 12.42 -0.62, 18.96 -1.25 M0.9 -0.75 C5.33 0.03, 11.87 -0.87, 20.41 -0.11 M20.44 1.37 C21.54 44.74, 20.14 90.08, 20.53 213.11 M19.76 -0.55 C19.33 47.2, 18.91 93.65, 19.64 213.44 M18.99 212.32 C16.18 213.64, 9.87 214.62, -1.83 213.88 M19.65 213.58 C13.05 213.6, 5.68 213.73, 0.21 213.34 M0.43 213.24 C-2.19 169.34, -1.12 125.5, 0.12 1.13 M0.05 213.37 C0.65 133.24, 1.48 54.2, -0.25 0.15" stroke="#000000" stroke-width="1" fill="none"/></g><g stroke-linecap="round" transform="translate(138.8750577715283 12.761626612888904) rotate(0 79.03723597751343 17.511650522672426)"><path d="M0.96 0.76 C44.32 0.85, 93.76 -0.38, 156.13 0.22 M-0.73 0.82 C61.4 -1.32, 122.96 -1.64, 159.02 0.88 M159.5 -1.75 C156.16 14.63, 158.34 25.55, 159.61 33.84 M158.95 0.64 C157.65 9.64, 157.57 19.76, 159.01 35.17 M157.75 34.95 C123.61 32.39, 91.3 33.44, 0.63 34.71 M158.85 35.23 C125.51 33.27, 92.68 33.66, 0.04 34.71 M-0.16 34.37 C-0.53 19.94, 1.13 7.22, -0.16 1.5 M0.38 34.8 C-0.41 21.43, -0.12 8.37, -0.69 0.66" stroke="#000000" stroke-width="1" fill="none"/></g><g transform="translate(145.58834006598886 16.97567940959766) rotate(0 65.5 11.5)"><text x="0" y="19" font-family="Helvetica, Segoe UI Emoji" font-size="20px" fill="#000000" text-anchor="start" style="white-space: pre;" direction="ltr">Proxy for bean</text></g><g stroke-linecap="round"><g transform="translate(216.2351160630986 55.01447034545694) rotate(0 0 146.29999542236328)"><path d="M0.46 -1.19 C0.52 47.6, 1.1 244.52, 1.08 293.3" stroke="#000000" stroke-width="1.5" fill="none" stroke-dasharray="8 9"/></g></g><g stroke-linecap="round" transform="translate(206.92797774240324 76.22123513622984) rotate(0 11.392191551700236 129.75183597139457)"><path d="M-0.4 -0.78 L22.28 -0.53 L24.68 258.92 L1.39 258.4" stroke="none" stroke-width="0" fill="#ffffffff"/><path d="M1.81 1.16 C8.52 -1.72, 16.08 2.04, 21.43 1.98 M0.24 -0.56 C5.09 1.03, 11.22 0.78, 21.82 -0.56 M24.14 0.49 C20.7 97.61, 20.02 192.66, 22.7 259.86 M22.26 -0.39 C23.46 101.21, 24.23 200.2, 22 258.81 M21.52 259.32 C16.11 260.01, 9.54 257.47, -1.53 258.35 M21.94 258.89 C13.73 259.51, 5.27 260.4, -0.52 259.25 M-1.04 260.27 C0.49 183.63, 1.89 109.18, 1.35 -0.94 M-0.43 259.64 C0.03 171.28, 0.99 84.62, -0.52 -0.42" stroke="#000000" stroke-width="1" fill="none"/></g><g stroke-linecap="round" transform="translate(323.0858552568613 10.022968434351014) rotate(0 148.49577230990377 18.755198884401267)"><path d="M0.49 0.04 C61.28 -2.55, 122.87 -2.09, 298.43 1.3 M-0.19 -0.3 C84.04 -1.29, 167.5 -0.62, 297.1 0.56 M298.36 1.6 C296.02 13.82, 297.29 27.5, 298.12 37.31 M296.23 0.13 C297.7 14.88, 297.77 28.91, 297.35 37.57 M296.64 37.01 C224.69 40.22, 151.85 38.7, -0.94 38.86 M297.41 37.97 C196.3 37.67, 96.94 37.95, -0.24 36.93 M0.37 36.39 C1.04 25.55, -0.5 13.86, 0.92 -0.41 M-0.53 36.78 C-0.89 28.3, -0.72 18.51, 0.28 -0.81" stroke="#000000" stroke-width="1" fill="none"/></g><g transform="translate(330.9140080132403 16.615485024759067) rotate(0 129 11.5)"><text x="0" y="19" font-family="Helvetica, Segoe UI Emoji" font-size="20px" fill="#000000" text-anchor="start" style="white-space: pre;" direction="ltr">PlatformTransactionManager</text></g><g stroke-linecap="round"><g transform="translate(470.8965308991754 52.49308217051646) rotate(0 0 146.29999542236328)"><path d="M0.04 -0.59 C-0.26 47.95, -1.04 242.61, -1.18 291.67" stroke="#000000" stroke-width="1.5" fill="none" stroke-dasharray="8 9"/></g></g><g stroke-linecap="round" transform="translate(461.58939257848004 103.95661498485606) rotate(0 9.267938615447349 15.568443448527034)"><path d="M1.61 -0.75 L18.1 -0.04 L16.8 32.22 L-0.85 29.5" stroke="none" stroke-width="0" fill="#ffffffff"/><path d="M-1.82 -1.44 C4.93 1.89, 13.98 -0.26, 18.82 0.59 M-0.75 0.91 C5.19 -0.03, 10.86 0.5, 18.45 -0.19 M18.42 0.33 C18.42 12.6, 18.58 24.78, 18.72 32.31 M18.75 0.75 C18.16 7.32, 18.64 13.4, 19.04 31.8 M20.11 32.95 C13.09 30.08, 9.97 31.95, -0.56 31.86 M17.67 31.41 C11.39 30.7, 4.56 31.25, 0.49 31.53 M0.32 30.83 C1.09 22.14, -0.24 10.46, 1.46 -0.37 M0.46 30.69 C0.56 23.74, -0.59 15.44, 0.69 -0.96" stroke="#000000" stroke-width="1" fill="none"/></g><g stroke-linecap="round" transform="translate(461.6648689162076 252.35394837099736) rotate(0 9.267938615447349 15.568443448527034)"><path d="M0.33 -1.42 L18.11 1.67 L19.77 31.68 L1.35 30.64" stroke="none" stroke-width="0" fill="#ffffffff"/><path d="M-1.55 -0.75 C6.19 1.74, 13.44 -1.24, 17.75 1.52 M0.4 0.27 C7.13 0.06, 14.52 0.02, 18.59 0.34 M16.92 -0.09 C20.02 12.71, 17.85 19.95, 17.68 30.81 M18.2 -0.59 C17.93 7.04, 18.1 13.92, 18.24 31.71 M18.57 30.95 C11.65 29.14, 7.34 31.77, -1.06 29.85 M19.08 30.83 C12.4 31.36, 6.04 31.39, -0.46 30.53 M1.33 30.18 C0.85 24.68, 1.27 16.03, -0.31 1.32 M-0.34 30.25 C0.51 20.78, -0.71 10.08, -0.36 0.69" stroke="#000000" stroke-width="1" fill="none"/></g><g stroke-linecap="round" transform="translate(640.8415247688564 10) rotate(0 119.89404930211359 18.34068803468344)"><path d="M-1.66 -1.57 C80.2 -0.48, 158.19 0.94, 239.13 0.07 M0.72 -0.29 C73.69 0.62, 147.68 0.79, 239.06 -0.56 M240.21 1.43 C240.96 11.67, 240.98 26.72, 241.34 36.31 M240 0.49 C239.83 9.98, 239.05 18.73, 240.55 36.34 M241.03 36.36 C153.97 36.53, 67.7 34.94, -0.95 37.66 M239.53 36.68 C149.18 34.71, 56.28 34.29, -0.02 37.35 M-1.22 35.11 C-1.43 28.26, -0.35 18.24, 0.69 -1.51 M0.34 37.29 C1.21 24.15, 0.13 10.78, 0.26 -0.52" stroke="#000000" stroke-width="1" fill="none"/></g><g stroke-linecap="round"><g transform="translate(762.9522114771585 50.812038712143476) rotate(0 0 146.29999542236328)"><path d="M-1.13 0.85 C-1.18 49.83, -0.31 244.16, 0.06 292.7" stroke="#000000" stroke-width="1.5" fill="none" stroke-dasharray="8 9"/></g></g><g stroke-linecap="round" transform="translate(751.9315879525018 161.1034115253582) rotate(0 8.853459390880118 31.285644418988657)"><path d="M0.62 0.65 L15.76 -0.57 L16.83 63.67 L1.57 62.29" stroke="none" stroke-width="0" fill="#ffffffff"/><path d="M-0.02 -0.59 C5.05 -1.56, 11.72 -0.43, 18.07 -0.57 M-0.34 -0.15 C4.98 0.95, 8.5 0.45, 18.24 0.1 M17.82 1.61 C19.43 16.63, 18.4 36.59, 17.71 60.86 M17.21 -0.17 C18.12 21.11, 18.15 43.41, 17.4 62.15 M17.44 61.54 C12.27 61.43, 11.12 62.42, -0.48 61.67 M18.01 62.05 C12.05 62.65, 4.06 63.25, 0.17 63.11 M1.08 63.1 C-2.43 44.77, -2.48 28.21, 1.42 -0.32 M-0.03 63.25 C-0.05 44.19, -0.6 24.17, -0.29 -0.2" stroke="#000000" stroke-width="1" fill="none"/></g><g transform="translate(648.6696775252353 16.592516590408025) rotate(0 113 11.5)"><text x="0" y="19" font-family="Helvetica, Segoe UI Emoji" font-size="20px" fill="#000000" text-anchor="start" style="white-space: pre;" direction="ltr">ChangePasswordService</text></g><g stroke-linecap="round"><g transform="translate(67.64862527874928 78.14436782031464) rotate(0 73.56732890153768 -2.2010682558867884)"><path d="M-0.68 -0.32 C23.73 -0.93, 122.76 -3.97, 147.48 -4.5 M1.16 -1.54 C25.36 -1.87, 122.39 -2.37, 146.71 -3.02" stroke="#000000" stroke-width="1" fill="none"/></g><g transform="translate(67.64862527874928 78.14436782031464) rotate(0 73.56732890153768 -2.2010682558867884)"><path d="M118.13 8.22 C129.29 4.55, 141.59 -1.57, 147.87 -4.36 M118.76 7.59 C124.02 6.37, 130.41 2.58, 145.83 -2.74" stroke="#000000" stroke-width="1" fill="none"/></g><g transform="translate(67.64862527874928 78.14436782031464) rotate(0 73.56732890153768 -2.2010682558867884)"><path d="M117.84 -12.29 C128.96 -8.13, 141.37 -6.42, 147.87 -4.36 M118.46 -12.93 C123.75 -9.89, 130.21 -9.42, 145.83 -2.74" stroke="#000000" stroke-width="1" fill="none"/></g></g><g stroke-linecap="round"><g transform="translate(233.7336997032709 105.44259350045182) rotate(0 113.23844552513806 -0.7421619575968421)"><path d="M0.86 -0.74 C38.74 -1.2, 189.75 -2.14, 227.17 -2.29 M-0.15 1.48 C37.64 1.11, 188.62 -0.86, 226.59 -1.18" stroke="#000000" stroke-width="1" fill="none"/></g><g transform="translate(233.7336997032709 105.44259350045182) rotate(0 113.23844552513806 -0.7421619575968421)"><path d="M197.28 10.55 C205.32 4.26, 214.58 1.84, 226.76 -1.29 M197.7 8.51 C205.76 5.97, 212.94 3.54, 226.37 -2.13" stroke="#000000" stroke-width="1" fill="none"/></g><g transform="translate(233.7336997032709 105.44259350045182) rotate(0 113.23844552513806 -0.7421619575968421)"><path d="M197.05 -9.97 C205.24 -10.28, 214.57 -6.71, 226.76 -1.29 M197.48 -12.01 C205.75 -9.4, 212.99 -6.67, 226.37 -2.13" stroke="#000000" stroke-width="1" fill="none"/></g></g><g stroke-linecap="round"><g transform="translate(232.7726193101345 172.473999101692) rotate(0 258.23982446669373 -6.043273987524749)"><path d="M-0.56 -1.08 C85.47 -3.04, 430.12 -10.9, 516.32 -12.74 M1.34 0.97 C87.19 -0.75, 429.52 -9.57, 515.29 -11.55" stroke="#000000" stroke-width="1" fill="none"/></g><g transform="translate(232.7726193101345 172.473999101692) rotate(0 258.23982446669373 -6.043273987524749)"><path d="M485.56 -0.86 C495.02 -3.61, 504.68 -6.02, 516.53 -12.6 M487.51 -1.55 C495.25 -3.01, 503.83 -7.24, 516.1 -11.82" stroke="#000000" stroke-width="1" fill="none"/></g><g transform="translate(232.7726193101345 172.473999101692) rotate(0 258.23982446669373 -6.043273987524749)"><path d="M485.06 -21.38 C494.51 -17.76, 504.32 -13.81, 516.53 -12.6 M487 -22.07 C494.93 -17.83, 503.64 -16.36, 516.1 -11.82" stroke="#000000" stroke-width="1" fill="none"/></g></g><g stroke-linecap="round"><g transform="translate(235.89617960099304 256.18318278774683) rotate(0 111.9876354861614 -1.1723742386801987)"><path d="M-0.81 -0.07 C36.37 -0.29, 185.68 -0.96, 223.01 -1.2 M0.96 -1.15 C38.52 -1.68, 187.77 -2.34, 225.21 -2.72" stroke="#000000" stroke-width="1" fill="none"/></g><g transform="translate(235.89617960099304 256.18318278774683) rotate(0 111.9876354861614 -1.1723742386801987)"><path d="M196.98 6.12 C207.22 3.46, 214.92 3.78, 224.65 -3.19 M196.59 7.42 C205.2 4.64, 212.02 2.89, 224.48 -3.25" stroke="#000000" stroke-width="1" fill="none"/></g><g transform="translate(235.89617960099304 256.18318278774683) rotate(0 111.9876354861614 -1.1723742386801987)"><path d="M196.83 -14.4 C207.13 -11.06, 214.87 -4.73, 224.65 -3.19 M196.44 -13.11 C205.26 -10.56, 212.12 -7, 224.48 -3.25" stroke="#000000" stroke-width="1" fill="none"/></g></g><g stroke-linecap="round"><g transform="translate(752.4451673257095 209.0383828714117) rotate(0 -261.9748417906517 4.559682597197451)"><path d="M1.08 -0.8 C-86.27 0.47, -435.45 6.75, -523.04 8.31" stroke="#000000" stroke-width="1.5" fill="none" stroke-dasharray="8 9"/></g><g transform="translate(752.4451673257095 209.0383828714117) rotate(0 -261.9748417906517 4.559682597197451)"><path d="M-496.36 -0.93 C-507.17 1.18, -517.57 5.69, -523.15 9" stroke="#000000" stroke-width="1.5" fill="none"/></g><g transform="translate(752.4451673257095 209.0383828714117) rotate(0 -261.9748417906517 4.559682597197451)"><path d="M-495.99 19.58 C-507.07 13.75, -517.6 10.31, -523.15 9" stroke="#000000" stroke-width="1.5" fill="none"/></g></g><g stroke-linecap="round"><g transform="translate(202.94638259623997 274.7903611575097) rotate(0 -67.2272768023339 0.8035154926475343)"><path d="M-0.68 0.05 C-23.09 0.08, -111.98 0.4, -134.43 0.64" stroke="#000000" stroke-width="1.5" fill="none" stroke-dasharray="8 9"/></g><g transform="translate(202.94638259623997 274.7903611575097) rotate(0 -67.2272768023339 0.8035154926475343)"><path d="M-106.23 -9.77 C-116.35 -8.42, -123.4 -4.63, -134.89 -0.18" stroke="#000000" stroke-width="1.5" fill="none"/></g><g transform="translate(202.94638259623997 274.7903611575097) rotate(0 -67.2272768023339 0.8035154926475343)"><path d="M-106.09 10.75 C-116.33 5.92, -123.42 3.54, -134.89 -0.18" stroke="#000000" stroke-width="1.5" fill="none"/></g></g><g transform="translate(58.543505348043084 50.325039988386465) rotate(0 76 9)"><text x="0" y="15" font-family="Helvetica, Segoe UI Emoji" font-size="16px" fill="#000000" text-anchor="start" style="white-space: pre;" direction="ltr">1: changePassword()</text></g><g transform="translate(260.2699491788762 77.34127384589439) rotate(0 74 9)"><text x="0" y="15" font-family="Helvetica, Segoe UI Emoji" font-size="16px" fill="#000000" text-anchor="start" style="white-space: pre;" direction="ltr">1.1: getTransaction()</text></g><g transform="translate(250.87072687330726 142.62776049384908) rotate(0 83 9)"><text x="0" y="15" font-family="Helvetica, Segoe UI Emoji" font-size="16px" fill="#000000" text-anchor="start" style="white-space: pre;" direction="ltr">1.2: changePassword()</text></g><g transform="translate(388.6212664803483 188.66688331269248) rotate(0 138.5 9)"><text x="0" y="15" font-family="Helvetica, Segoe UI Emoji" font-size="16px" fill="#000000" text-anchor="start" style="white-space: pre;" direction="ltr">1.3: throw WrongIdPasswordException</text></g><g transform="translate(267.73351434688277 231.7938783342797) rotate(0 53.5 9)"><text x="0" y="15" font-family="Helvetica, Segoe UI Emoji" font-size="16px" fill="#000000" text-anchor="start" style="white-space: pre;" direction="ltr">1.4: roallback()</text></g><g transform="translate(111.72196362329504 247.70785796742732) rotate(0 37 9)"><text x="0" y="15" font-family="Helvetica, Segoe UI Emoji" font-size="16px" fill="#000000" text-anchor="start" style="white-space: pre;" direction="ltr">1.5: return</text></g></svg>